<svg width="41" height="51" viewBox="0 0 41 51" fill="none" xmlns="http://www.w3.org/2000/svg">
<rect y="5" width="36" height="46" fill="#24243E"/>
<rect x="5" width="36" height="46" fill="#CEEAF7"/>
<rect x="5" y="5" width="31" height="41" fill="#4067EC"/>
<path d="M20.8744 35.21C21.1744 36.51 21.7944 37.49 22.7344 38.15C23.6944 38.81 24.9544 39.14 26.5144 39.14C27.1144 39.14 27.8344 39.07 28.6744 38.93L28.2544 40.13C27.3544 40.37 26.3644 40.49 25.2844 40.49C23.8444 40.49 22.4644 40.25 21.1444 39.77C19.8244 39.31 18.7044 38.66 17.7844 37.82C16.8844 37 16.2944 36.08 16.0144 35.06C13.1144 34.6 10.8644 33.45 9.26441 31.61C7.68441 29.75 6.89441 27.35 6.89441 24.41C6.89441 22.17 7.37441 20.25 8.33441 18.65C9.31441 17.05 10.7144 15.83 12.5344 14.99C14.3544 14.13 16.5144 13.7 19.0144 13.7C21.4944 13.7 23.6444 14.13 25.4644 14.99C27.2844 15.83 28.6744 17.05 29.6344 18.65C30.6144 20.25 31.1044 22.17 31.1044 24.41C31.1044 27.53 30.2044 30.03 28.4044 31.91C26.6044 33.79 24.0944 34.89 20.8744 35.21ZM12.0544 24.41C12.0544 27.35 12.6444 29.59 13.8244 31.13C15.0044 32.67 16.7344 33.44 19.0144 33.44C21.2744 33.44 22.9944 32.67 24.1744 31.13C25.3544 29.59 25.9444 27.35 25.9444 24.41C25.9444 21.53 25.3544 19.34 24.1744 17.84C22.9944 16.32 21.2744 15.56 19.0144 15.56C16.7544 15.56 15.0244 16.32 13.8244 17.84C12.6444 19.34 12.0544 21.53 12.0544 24.41Z" fill="white"/>
</svg>
