<svg width="257" height="51" viewBox="0 0 257 51" fill="none" xmlns="http://www.w3.org/2000/svg">
<path d="M54.954 37V18.0909H62.525C63.9161 18.0909 65.0764 18.2971 66.0059 18.7095C66.9353 19.1219 67.6339 19.6944 68.1017 20.4268C68.5695 21.1532 68.8034 21.9903 68.8034 22.9382C68.8034 23.6768 68.6557 24.3262 68.3603 24.8864C68.0648 25.4403 67.6586 25.8958 67.1415 26.2528C66.6306 26.6037 66.0459 26.853 65.3873 27.0007V27.1854C66.1074 27.2161 66.7814 27.4193 67.4093 27.7947C68.0433 28.1702 68.5572 28.6965 68.9512 29.3736C69.3451 30.0445 69.5421 30.8447 69.5421 31.7741C69.5421 32.7775 69.2928 33.6731 68.7942 34.4609C68.3018 35.2427 67.5724 35.8613 66.606 36.3168C65.6396 36.7723 64.4486 37 63.0328 37H54.954ZM58.9519 33.7315H62.2111C63.3252 33.7315 64.1377 33.5192 64.6486 33.0945C65.1595 32.6636 65.415 32.0911 65.415 31.3771C65.415 30.8539 65.2888 30.3923 65.0364 29.9922C64.784 29.5921 64.4239 29.2782 63.9561 29.0504C63.4945 28.8227 62.9436 28.7088 62.3034 28.7088H58.9519V33.7315ZM58.9519 26.0036H61.9157C62.4635 26.0036 62.9498 25.9081 63.3745 25.7173C63.8053 25.5204 64.1439 25.2434 64.3901 24.8864C64.6425 24.5294 64.7686 24.1016 64.7686 23.603C64.7686 22.9197 64.5255 22.3688 64.0392 21.9503C63.5591 21.5317 62.8759 21.3224 61.9895 21.3224H58.9519V26.0036ZM72.0696 37V22.8182H75.8828V25.2926H76.0305C76.2891 24.4124 76.723 23.7476 77.3324 23.2983C77.9418 22.8428 78.6435 22.6151 79.4375 22.6151C79.6345 22.6151 79.8468 22.6274 80.0746 22.652C80.3023 22.6766 80.5024 22.7105 80.6747 22.7536V26.2436C80.4901 26.1882 80.2346 26.139 79.9084 26.0959C79.5821 26.0528 79.2836 26.0312 79.0128 26.0312C78.4342 26.0312 77.9171 26.1574 77.4616 26.4098C77.0123 26.656 76.6553 27.0007 76.3906 27.4439C76.1321 27.8871 76.0028 28.398 76.0028 28.9766V37H72.0696ZM86.3461 37.2678C85.4412 37.2678 84.6349 37.1108 83.927 36.7969C83.2192 36.4768 82.659 36.0059 82.2466 35.3842C81.8404 34.7564 81.6373 33.9747 81.6373 33.0391C81.6373 32.2512 81.7819 31.5895 82.0712 31.054C82.3605 30.5185 82.7544 30.0876 83.253 29.7614C83.7516 29.4351 84.3179 29.1889 84.9519 29.0227C85.592 28.8565 86.263 28.7396 86.9647 28.6719C87.7895 28.5857 88.4542 28.5057 88.959 28.4318C89.4637 28.3518 89.83 28.2348 90.0577 28.081C90.2855 27.9271 90.3993 27.6993 90.3993 27.3977V27.3423C90.3993 26.7576 90.2147 26.3052 89.8453 25.9851C89.4822 25.665 88.9651 25.505 88.2942 25.505C87.5864 25.505 87.0231 25.6619 86.6046 25.9759C86.186 26.2836 85.909 26.6714 85.7736 27.1392L82.1358 26.8438C82.3205 25.982 82.6837 25.2372 83.2253 24.6094C83.767 23.9754 84.4656 23.4891 85.3212 23.1506C86.1829 22.8059 87.1801 22.6335 88.3127 22.6335C89.1006 22.6335 89.8546 22.7259 90.5748 22.9105C91.3011 23.0952 91.9443 23.3814 92.5044 23.7692C93.0707 24.157 93.517 24.6555 93.8432 25.2649C94.1694 25.8681 94.3326 26.5914 94.3326 27.4347V37H90.6025V35.0334H90.4917C90.2639 35.4766 89.9592 35.8674 89.5776 36.206C89.196 36.5384 88.7374 36.8 88.2019 36.9908C87.6664 37.1754 87.0478 37.2678 86.3461 37.2678ZM87.4725 34.5533C88.0511 34.5533 88.562 34.4394 89.0051 34.2116C89.4483 33.9777 89.7961 33.6638 90.0485 33.2699C90.3008 32.8759 90.427 32.4297 90.427 31.9311V30.4261C90.3039 30.5062 90.1346 30.58 89.9192 30.6477C89.7099 30.7093 89.473 30.7678 89.2083 30.8232C88.9436 30.8724 88.6789 30.9186 88.4142 30.9616C88.1496 30.9986 87.9095 31.0324 87.6941 31.0632C87.2324 31.1309 86.8292 31.2386 86.4846 31.3864C86.1399 31.5341 85.8721 31.7341 85.6813 31.9865C85.4905 32.2327 85.3951 32.5405 85.3951 32.9098C85.3951 33.4453 85.589 33.8546 85.9767 34.1378C86.3707 34.4148 86.8693 34.5533 87.4725 34.5533ZM97.3841 37V22.8182H101.317V37H97.3841ZM99.3599 20.9901C98.7752 20.9901 98.2735 20.7962 97.8549 20.4084C97.4425 20.0144 97.2363 19.5436 97.2363 18.9957C97.2363 18.4541 97.4425 17.9893 97.8549 17.6016C98.2735 17.2076 98.7752 17.0107 99.3599 17.0107C99.9447 17.0107 100.443 17.2076 100.856 17.6016C101.274 17.9893 101.483 18.4541 101.483 18.9957C101.483 19.5436 101.274 20.0144 100.856 20.4084C100.443 20.7962 99.9447 20.9901 99.3599 20.9901ZM108.401 28.8011V37H104.468V22.8182H108.217V25.3203H108.383C108.697 24.4955 109.223 23.843 109.962 23.3629C110.7 22.8767 111.596 22.6335 112.648 22.6335C113.633 22.6335 114.492 22.849 115.224 23.2798C115.957 23.7107 116.526 24.3262 116.933 25.1264C117.339 25.9205 117.542 26.8684 117.542 27.9702V37H113.609V28.6719C113.615 27.804 113.393 27.1269 112.944 26.6406C112.495 26.1482 111.876 25.902 111.088 25.902C110.559 25.902 110.091 26.0159 109.685 26.2436C109.285 26.4714 108.971 26.8037 108.743 27.2408C108.521 27.6716 108.407 28.1918 108.401 28.8011ZM118.802 21.3871V18.0909H134.332V21.3871H128.543V37H124.591V21.3871H118.802ZM141.222 37.277C139.763 37.277 138.508 36.9815 137.455 36.3906C136.409 35.7936 135.602 34.9503 135.036 33.8608C134.47 32.7652 134.187 31.4695 134.187 29.9737C134.187 28.5149 134.47 27.2346 135.036 26.1328C135.602 25.031 136.399 24.1723 137.427 23.5568C138.461 22.9413 139.674 22.6335 141.065 22.6335C142.001 22.6335 142.872 22.7843 143.678 23.0859C144.491 23.3814 145.198 23.8277 145.802 24.4247C146.411 25.0218 146.885 25.7727 147.224 26.6776C147.562 27.5762 147.731 28.6288 147.731 29.8352V30.9155H135.756V28.478H144.029C144.029 27.9117 143.906 27.41 143.66 26.973C143.413 26.536 143.072 26.1944 142.635 25.9482C142.204 25.6958 141.702 25.5696 141.13 25.5696C140.533 25.5696 140.003 25.7081 139.542 25.9851C139.086 26.2559 138.729 26.6222 138.471 27.0838C138.212 27.5393 138.08 28.0471 138.074 28.6072V30.9247C138.074 31.6264 138.203 32.2327 138.461 32.7436C138.726 33.2545 139.099 33.6484 139.579 33.9254C140.059 34.2024 140.628 34.3409 141.287 34.3409C141.724 34.3409 142.124 34.2794 142.487 34.1562C142.85 34.0331 143.161 33.8485 143.42 33.6023C143.678 33.3561 143.875 33.0545 144.01 32.6974L147.648 32.9375C147.464 33.8116 147.085 34.5748 146.513 35.2273C145.946 35.8736 145.214 36.3783 144.315 36.7415C143.423 37.0985 142.392 37.277 141.222 37.277ZM154.342 37.2678C153.437 37.2678 152.631 37.1108 151.923 36.7969C151.215 36.4768 150.655 36.0059 150.243 35.3842C149.836 34.7564 149.633 33.9747 149.633 33.0391C149.633 32.2512 149.778 31.5895 150.067 31.054C150.357 30.5185 150.751 30.0876 151.249 29.7614C151.748 29.4351 152.314 29.1889 152.948 29.0227C153.588 28.8565 154.259 28.7396 154.961 28.6719C155.786 28.5857 156.45 28.5057 156.955 28.4318C157.46 28.3518 157.826 28.2348 158.054 28.081C158.282 27.9271 158.395 27.6993 158.395 27.3977V27.3423C158.395 26.7576 158.211 26.3052 157.841 25.9851C157.478 25.665 156.961 25.505 156.29 25.505C155.582 25.505 155.019 25.6619 154.601 25.9759C154.182 26.2836 153.905 26.6714 153.77 27.1392L150.132 26.8438C150.317 25.982 150.68 25.2372 151.221 24.6094C151.763 23.9754 152.462 23.4891 153.317 23.1506C154.179 22.8059 155.176 22.6335 156.309 22.6335C157.097 22.6335 157.851 22.7259 158.571 22.9105C159.297 23.0952 159.94 23.3814 160.501 23.7692C161.067 24.157 161.513 24.6555 161.839 25.2649C162.166 25.8681 162.329 26.5914 162.329 27.4347V37H158.599V35.0334H158.488C158.26 35.4766 157.955 35.8674 157.574 36.206C157.192 36.5384 156.733 36.8 156.198 36.9908C155.662 37.1754 155.044 37.2678 154.342 37.2678ZM155.469 34.5533C156.047 34.5533 156.558 34.4394 157.001 34.2116C157.444 33.9777 157.792 33.6638 158.045 33.2699C158.297 32.8759 158.423 32.4297 158.423 31.9311V30.4261C158.3 30.5062 158.131 30.58 157.915 30.6477C157.706 30.7093 157.469 30.7678 157.204 30.8232C156.94 30.8724 156.675 30.9186 156.41 30.9616C156.146 30.9986 155.906 31.0324 155.69 31.0632C155.229 31.1309 154.825 31.2386 154.481 31.3864C154.136 31.5341 153.868 31.7341 153.677 31.9865C153.487 32.2327 153.391 32.5405 153.391 32.9098C153.391 33.4453 153.585 33.8546 153.973 34.1378C154.367 34.4148 154.865 34.5533 155.469 34.5533ZM177.18 26.8622L173.579 27.0838C173.517 26.776 173.385 26.4991 173.182 26.2528C172.979 26.0005 172.711 25.8004 172.379 25.6527C172.052 25.4988 171.662 25.4219 171.206 25.4219C170.597 25.4219 170.083 25.5511 169.664 25.8097C169.246 26.062 169.036 26.4006 169.036 26.8253C169.036 27.1638 169.172 27.45 169.443 27.6839C169.713 27.9179 170.178 28.1056 170.837 28.2472L173.404 28.7642C174.782 29.0473 175.81 29.5028 176.487 30.1307C177.164 30.7585 177.503 31.5833 177.503 32.6051C177.503 33.5346 177.229 34.3501 176.681 35.0518C176.14 35.7536 175.395 36.3014 174.447 36.6953C173.505 37.0831 172.419 37.277 171.188 37.277C169.31 37.277 167.815 36.8861 166.7 36.1044C165.593 35.3165 164.943 34.2455 164.752 32.8913L168.621 32.6882C168.738 33.2607 169.021 33.6977 169.47 33.9993C169.92 34.2947 170.495 34.4425 171.197 34.4425C171.886 34.4425 172.44 34.3101 172.859 34.0455C173.284 33.7746 173.499 33.4268 173.505 33.0021C173.499 32.6451 173.348 32.3527 173.053 32.125C172.757 31.8911 172.302 31.7126 171.686 31.5895L169.23 31.1001C167.845 30.8232 166.814 30.343 166.137 29.6598C165.466 28.9766 165.131 28.1056 165.131 27.0469C165.131 26.1359 165.377 25.3511 165.869 24.6925C166.368 24.0339 167.067 23.526 167.965 23.169C168.87 22.812 169.929 22.6335 171.142 22.6335C172.933 22.6335 174.342 23.0121 175.37 23.7692C176.404 24.5263 177.008 25.5573 177.18 26.8622ZM186.443 37.277C184.984 37.277 183.728 36.9815 182.676 36.3906C181.629 35.7936 180.823 34.9503 180.257 33.8608C179.69 32.7652 179.407 31.4695 179.407 29.9737C179.407 28.5149 179.69 27.2346 180.257 26.1328C180.823 25.031 181.62 24.1723 182.648 23.5568C183.682 22.9413 184.895 22.6335 186.286 22.6335C187.221 22.6335 188.092 22.7843 188.899 23.0859C189.711 23.3814 190.419 23.8277 191.022 24.4247C191.632 25.0218 192.106 25.7727 192.444 26.6776C192.783 27.5762 192.952 28.6288 192.952 29.8352V30.9155H180.977V28.478H189.25C189.25 27.9117 189.127 27.41 188.88 26.973C188.634 26.536 188.292 26.1944 187.855 25.9482C187.425 25.6958 186.923 25.5696 186.35 25.5696C185.753 25.5696 185.224 25.7081 184.762 25.9851C184.307 26.2559 183.95 26.6222 183.691 27.0838C183.433 27.5393 183.301 28.0471 183.294 28.6072V30.9247C183.294 31.6264 183.424 32.2327 183.682 32.7436C183.947 33.2545 184.319 33.6484 184.799 33.9254C185.279 34.2024 185.849 34.3409 186.507 34.3409C186.944 34.3409 187.345 34.2794 187.708 34.1562C188.071 34.0331 188.382 33.8485 188.64 33.6023C188.899 33.3561 189.096 33.0545 189.231 32.6974L192.869 32.9375C192.684 33.8116 192.306 34.5748 191.733 35.2273C191.167 35.8736 190.435 36.3783 189.536 36.7415C188.643 37.0985 187.612 37.277 186.443 37.277ZM195.519 37V22.8182H199.332V25.2926H199.48C199.738 24.4124 200.172 23.7476 200.782 23.2983C201.391 22.8428 202.093 22.6151 202.887 22.6151C203.084 22.6151 203.296 22.6274 203.524 22.652C203.752 22.6766 203.952 22.7105 204.124 22.7536V26.2436C203.939 26.1882 203.684 26.139 203.358 26.0959C203.031 26.0528 202.733 26.0312 202.462 26.0312C201.883 26.0312 201.366 26.1574 200.911 26.4098C200.462 26.656 200.105 27.0007 199.84 27.4439C199.581 27.8871 199.452 28.398 199.452 28.9766V37H195.519ZM206.231 37V18.0909H210.229V25.8928H218.345V18.0909H222.334V37H218.345V29.1889H210.229V37H206.231ZM234.65 30.9616V22.8182H238.584V37H234.807V34.424H234.66C234.34 35.255 233.807 35.9228 233.062 36.4276C232.324 36.9323 231.422 37.1847 230.357 37.1847C229.409 37.1847 228.575 36.9692 227.855 36.5384C227.135 36.1075 226.572 35.495 226.165 34.701C225.765 33.907 225.562 32.956 225.556 31.848V22.8182H229.489V31.1463C229.495 31.9834 229.72 32.6451 230.163 33.1314C230.606 33.6177 231.2 33.8608 231.945 33.8608C232.419 33.8608 232.862 33.7531 233.275 33.5376C233.687 33.3161 234.019 32.9898 234.272 32.5589C234.53 32.1281 234.657 31.5956 234.65 30.9616ZM241.804 37V18.0909H245.737V25.2003H245.857C246.029 24.8187 246.279 24.4309 246.605 24.0369C246.937 23.6368 247.368 23.3045 247.897 23.0398C248.433 22.7689 249.098 22.6335 249.892 22.6335C250.926 22.6335 251.88 22.9044 252.754 23.446C253.628 23.9815 254.327 24.791 254.85 25.8743C255.373 26.9515 255.635 28.3026 255.635 29.9276C255.635 31.5095 255.379 32.8452 254.868 33.9347C254.364 35.018 253.674 35.8397 252.8 36.3999C251.932 36.9538 250.96 37.2308 249.882 37.2308C249.119 37.2308 248.47 37.1046 247.934 36.8523C247.405 36.5999 246.971 36.2829 246.632 35.9013C246.294 35.5135 246.035 35.1226 245.857 34.7287H245.681V37H241.804ZM245.654 29.9091C245.654 30.7524 245.771 31.4879 246.005 32.1158C246.239 32.7436 246.577 33.233 247.02 33.5838C247.463 33.9285 248.002 34.1009 248.636 34.1009C249.276 34.1009 249.818 33.9254 250.261 33.5746C250.704 33.2176 251.04 32.7251 251.267 32.0973C251.501 31.4633 251.618 30.7339 251.618 29.9091C251.618 29.0904 251.504 28.3703 251.277 27.7486C251.049 27.1269 250.713 26.6406 250.27 26.2898C249.827 25.9389 249.282 25.7635 248.636 25.7635C247.996 25.7635 247.454 25.9328 247.011 26.2713C246.574 26.6098 246.239 27.09 246.005 27.7116C245.771 28.3333 245.654 29.0658 245.654 29.9091Z" fill="#24243E"/>
<rect y="5" width="36" height="46" fill="#24243E"/>
<rect x="5" width="36" height="46" fill="#CEEAF7"/>
<rect x="5" y="5" width="31" height="41" fill="#4067EC"/>
<path d="M20.8744 35.21C21.1744 36.51 21.7944 37.49 22.7344 38.15C23.6944 38.81 24.9544 39.14 26.5144 39.14C27.1144 39.14 27.8344 39.07 28.6744 38.93L28.2544 40.13C27.3544 40.37 26.3644 40.49 25.2844 40.49C23.8444 40.49 22.4644 40.25 21.1444 39.77C19.8244 39.31 18.7044 38.66 17.7844 37.82C16.8844 37 16.2944 36.08 16.0144 35.06C13.1144 34.6 10.8644 33.45 9.26441 31.61C7.68441 29.75 6.89441 27.35 6.89441 24.41C6.89441 22.17 7.37441 20.25 8.33441 18.65C9.31441 17.05 10.7144 15.83 12.5344 14.99C14.3544 14.13 16.5144 13.7 19.0144 13.7C21.4944 13.7 23.6444 14.13 25.4644 14.99C27.2844 15.83 28.6744 17.05 29.6344 18.65C30.6144 20.25 31.1044 22.17 31.1044 24.41C31.1044 27.53 30.2044 30.03 28.4044 31.91C26.6044 33.79 24.0944 34.89 20.8744 35.21ZM12.0544 24.41C12.0544 27.35 12.6444 29.59 13.8244 31.13C15.0044 32.67 16.7344 33.44 19.0144 33.44C21.2744 33.44 22.9944 32.67 24.1744 31.13C25.3544 29.59 25.9444 27.35 25.9444 24.41C25.9444 21.53 25.3544 19.34 24.1744 17.84C22.9944 16.32 21.2744 15.56 19.0144 15.56C16.7544 15.56 15.0244 16.32 13.8244 17.84C12.6444 19.34 12.0544 21.53 12.0544 24.41Z" fill="white"/>
</svg>
